<svg width="308" height="142" viewBox="0 0 308 142" fill="none" xmlns="http://www.w3.org/2000/svg">
<path d="M9.12287 74.0909H24.3608L32.0668 105.611H32.6634L50.8097 74.0909H66.0476L57.5959 125H45.6143L50.8097 93.7287H50.3871L33.0362 124.677H25.4048L18.3452 93.5547H17.9226L12.6527 125H0.671165L9.12287 74.0909Z" fill="black"/>
<path d="M10.6712 68L19.1229 17.0909H40.1527C43.9643 17.0909 47.1378 17.8284 49.6733 19.3033C52.2088 20.7782 54.0069 22.8414 55.0675 25.4929C56.1281 28.1444 56.3684 31.2185 55.7884 34.7152C55.2249 38.245 53.9572 41.3191 51.9851 43.9375C50.0296 46.5559 47.5107 48.5859 44.4283 50.0277C41.3459 51.4695 37.8409 52.1903 33.9134 52.1903H20.9624L22.5781 42.4957H33.267C35.1397 42.4957 36.7554 42.1726 38.1143 41.5263C39.4898 40.88 40.5919 39.9768 41.4205 38.8168C42.2491 37.6567 42.7959 36.2895 43.0611 34.7152C43.3097 33.1409 43.2102 31.782 42.7628 30.6385C42.3153 29.4785 41.5116 28.5836 40.3516 27.9538C39.2081 27.3241 37.7166 27.0092 35.8771 27.0092H29.8118L22.9759 68H10.6712Z" fill="black"/>
<path d="M56.4794 68L61.0249 40.7273H69.4588L68.6243 45.6989H68.9084C69.7015 43.8996 70.7372 42.562 72.0156 41.6861C73.294 40.7983 74.679 40.3544 76.1705 40.3544C76.5729 40.3544 76.9754 40.384 77.3778 40.4432C77.7921 40.4905 78.1828 40.5616 78.5497 40.6562L77.2713 48.2202C76.8688 48.0663 76.3421 47.9538 75.6911 47.8828C75.04 47.8 74.4482 47.7585 73.9155 47.7585C72.8857 47.7585 71.9268 47.9893 71.0391 48.451C70.1631 48.9008 69.4174 49.5341 68.8018 50.3509C68.1982 51.1558 67.8016 52.1027 67.6122 53.1918L65.1619 68H56.4794ZM77.5243 68L82.0698 40.7273H90.7523L86.2069 68H77.5243ZM87.0236 37.5312C85.7926 37.5312 84.7923 37.1229 84.0229 36.3061C83.2535 35.4893 82.9516 34.5128 83.1174 33.3764C83.2831 32.2282 83.8631 31.2517 84.8574 30.4467C85.8517 29.6418 86.9585 29.2393 88.1777 29.2393C89.4088 29.2393 90.3972 29.6418 91.1429 30.4467C91.9005 31.2517 92.1964 32.2282 92.0307 33.3764C91.8887 34.5128 91.3205 35.4893 90.3262 36.3061C89.3437 37.1229 88.2428 37.5312 87.0236 37.5312ZM95.3732 78.2273C94.3316 78.2273 93.3609 78.1444 92.4613 77.9787C91.5735 77.8248 90.8159 77.6177 90.1886 77.3572L93.1715 71.054C93.9646 71.3381 94.6926 71.4979 95.3555 71.5334C96.0302 71.5807 96.6339 71.4683 97.1665 71.196C97.7111 70.9356 98.1845 70.468 98.587 69.7933L99.0842 68.9588L94.0948 40.7273H102.866L104.642 60.2053H104.926L113.271 40.7273H122.735L107.518 70.6101C106.749 72.1016 105.819 73.4214 104.73 74.5696C103.641 75.7178 102.328 76.6115 100.789 77.2507C99.2617 77.9018 97.4566 78.2273 95.3732 78.2273ZM128.403 68.4616C126.675 68.4616 125.184 68.1716 123.929 67.5916C122.686 66.9998 121.774 66.1061 121.194 64.9105C120.626 63.715 120.49 62.2235 120.786 60.4361C121.046 58.9209 121.526 57.6484 122.224 56.6186C122.934 55.5769 123.805 54.7306 124.834 54.0795C125.876 53.4285 127.036 52.9313 128.314 52.5881C129.593 52.2448 130.93 52.014 132.327 51.8956C133.89 51.7536 135.156 51.5997 136.127 51.4339C137.109 51.2682 137.843 51.0374 138.329 50.7415C138.814 50.4337 139.11 50.0076 139.216 49.4631V49.3743C139.358 48.4628 139.163 47.7585 138.631 47.2614C138.098 46.7642 137.299 46.5156 136.233 46.5156C135.097 46.5156 134.126 46.7642 133.322 47.2614C132.517 47.7585 131.954 48.4451 131.635 49.321L123.68 49.0369C124.177 47.3797 125.03 45.9001 126.237 44.598C127.444 43.2841 128.977 42.2543 130.836 41.5085C132.706 40.7509 134.866 40.3722 137.317 40.3722C139.045 40.3722 140.607 40.5793 142.004 40.9936C143.401 41.3961 144.579 41.9879 145.537 42.7692C146.508 43.5386 147.201 44.4856 147.615 45.6101C148.029 46.7346 148.118 48.0189 147.881 49.4631L144.774 68H136.606L137.246 64.2003H137.032C136.393 65.1236 135.642 65.9048 134.778 66.544C133.925 67.1832 132.966 67.6626 131.901 67.9822C130.836 68.3018 129.67 68.4616 128.403 68.4616ZM132.061 62.7798C132.972 62.7798 133.836 62.5904 134.653 62.2116C135.47 61.8329 136.157 61.312 136.713 60.6491C137.281 59.9744 137.642 59.1932 137.796 58.3054L138.204 55.7131C137.956 55.8433 137.642 55.9616 137.263 56.0682C136.885 56.1747 136.482 56.2753 136.056 56.37C135.63 56.4529 135.192 56.5357 134.742 56.6186C134.304 56.6896 133.884 56.7547 133.481 56.8139C132.629 56.9441 131.889 57.1454 131.262 57.4176C130.635 57.6899 130.131 58.045 129.753 58.483C129.386 58.9091 129.161 59.4181 129.078 60.0099C128.936 60.8977 129.143 61.5843 129.699 62.0696C130.256 62.5431 131.043 62.7798 132.061 62.7798ZM160.008 68.3906C157.996 68.3906 156.25 67.8698 154.77 66.8281C153.291 65.7865 152.231 64.224 151.592 62.1406C150.965 60.0573 150.906 57.4709 151.415 54.3814C151.947 51.1735 152.894 48.5339 154.256 46.4624C155.617 44.3909 157.203 42.858 159.014 41.8636C160.837 40.8693 162.695 40.3722 164.589 40.3722C166.022 40.3722 167.205 40.6207 168.14 41.1179C169.087 41.6032 169.827 42.2306 170.36 43C170.893 43.7694 171.26 44.5684 171.461 45.397H171.656L173.947 31.6364H182.629L176.592 68H167.998L168.726 63.5788H168.46C167.951 64.4193 167.3 65.2064 166.507 65.9403C165.714 66.6742 164.773 67.2661 163.684 67.7159C162.607 68.1657 161.381 68.3906 160.008 68.3906ZM164.11 61.6257C165.163 61.6257 166.116 61.3298 166.969 60.7379C167.821 60.1342 168.537 59.2879 169.117 58.1989C169.709 57.1098 170.123 55.8314 170.36 54.3636C170.608 52.8722 170.62 51.5878 170.395 50.5107C170.171 49.4335 169.727 48.6049 169.064 48.0249C168.413 47.4448 167.555 47.1548 166.489 47.1548C165.424 47.1548 164.471 47.4508 163.631 48.0426C162.79 48.6345 162.092 49.469 161.535 50.5462C160.979 51.6233 160.577 52.8958 160.328 54.3636C160.091 55.8314 160.068 57.1098 160.257 58.1989C160.458 59.2879 160.878 60.1342 161.518 60.7379C162.169 61.3298 163.033 61.6257 164.11 61.6257ZM189.731 68.4616C188.003 68.4616 186.512 68.1716 185.257 67.5916C184.014 66.9998 183.103 66.1061 182.523 64.9105C181.954 63.715 181.818 62.2235 182.114 60.4361C182.375 58.9209 182.854 57.6484 183.552 56.6186C184.263 55.5769 185.133 54.7306 186.162 54.0795C187.204 53.4285 188.364 52.9313 189.643 52.5881C190.921 52.2448 192.259 52.014 193.655 51.8956C195.218 51.7536 196.484 51.5997 197.455 51.4339C198.438 51.2682 199.171 51.0374 199.657 50.7415C200.142 50.4337 200.438 50.0076 200.545 49.4631V49.3743C200.687 48.4628 200.491 47.7585 199.959 47.2614C199.426 46.7642 198.627 46.5156 197.562 46.5156C196.425 46.5156 195.455 46.7642 194.65 47.2614C193.845 47.7585 193.282 48.4451 192.963 49.321L185.008 49.0369C185.506 47.3797 186.358 45.9001 187.565 44.598C188.773 43.2841 190.305 42.2543 192.164 41.5085C194.034 40.7509 196.194 40.3722 198.645 40.3722C200.373 40.3722 201.935 40.5793 203.332 40.9936C204.729 41.3961 205.907 41.9879 206.866 42.7692C207.836 43.5386 208.529 44.4856 208.943 45.6101C209.357 46.7346 209.446 48.0189 209.209 49.4631L206.102 68H197.934L198.574 64.2003H198.361C197.721 65.1236 196.97 65.9048 196.106 66.544C195.253 67.1832 194.295 67.6626 193.229 67.9822C192.164 68.3018 190.998 68.4616 189.731 68.4616ZM193.389 62.7798C194.3 62.7798 195.165 62.5904 195.981 62.2116C196.798 61.8329 197.485 61.312 198.041 60.6491C198.609 59.9744 198.97 59.1932 199.124 58.3054L199.532 55.7131C199.284 55.8433 198.97 55.9616 198.591 56.0682C198.213 56.1747 197.81 56.2753 197.384 56.37C196.958 56.4529 196.52 56.5357 196.07 56.6186C195.632 56.6896 195.212 56.7547 194.809 56.8139C193.957 56.9441 193.217 57.1454 192.59 57.4176C191.963 57.6899 191.46 58.045 191.081 58.483C190.714 58.9091 190.489 59.4181 190.406 60.0099C190.264 60.8977 190.471 61.5843 191.028 62.0696C191.584 62.5431 192.371 62.7798 193.389 62.7798ZM211.411 68L215.956 40.7273H224.39L223.556 45.6989H223.84C224.633 43.8996 225.669 42.562 226.947 41.6861C228.226 40.7983 229.611 40.3544 231.102 40.3544C231.505 40.3544 231.907 40.384 232.309 40.4432C232.724 40.4905 233.114 40.5616 233.481 40.6562L232.203 48.2202C231.8 48.0663 231.274 47.9538 230.623 47.8828C229.972 47.8 229.38 47.7585 228.847 47.7585C227.817 47.7585 226.858 47.9893 225.971 48.451C225.095 48.9008 224.349 49.5341 223.733 50.3509C223.13 51.1558 222.733 52.1027 222.544 53.1918L220.094 68H211.411ZM259.356 49.0547L251.526 49.2678C251.537 48.6877 251.407 48.1787 251.135 47.7408C250.863 47.291 250.478 46.9418 249.981 46.6932C249.484 46.4446 248.892 46.3203 248.205 46.3203C247.093 46.3203 246.092 46.5689 245.205 47.0661C244.329 47.5632 243.837 48.2083 243.731 49.0014C243.648 49.4276 243.766 49.8004 244.086 50.12C244.406 50.4278 245.116 50.7 246.217 50.9368L251.33 51.9311C253.958 52.4519 255.864 53.3575 257.048 54.6477C258.243 55.9261 258.669 57.6188 258.326 59.7259C258.018 61.5251 257.225 63.0817 255.947 64.3956C254.68 65.7095 253.064 66.7275 251.099 67.4496C249.146 68.1598 246.986 68.5149 244.619 68.5149C240.618 68.5149 237.599 67.71 235.563 66.1001C233.539 64.4785 232.592 62.33 232.722 59.6548L241.174 59.4418C241.21 60.4479 241.547 61.2055 242.186 61.7145C242.837 62.2116 243.719 62.4721 244.832 62.4957C246.051 62.5194 247.104 62.2649 247.992 61.7322C248.88 61.1996 249.377 60.5426 249.484 59.7614C249.555 59.2524 249.383 58.8558 248.969 58.5717C248.566 58.2876 247.815 58.0331 246.714 57.8082L242.097 56.9027C239.446 56.3937 237.528 55.4349 236.344 54.0263C235.173 52.6058 234.77 50.7947 235.137 48.593C235.445 46.8411 236.167 45.3556 237.303 44.1364C238.451 42.9053 239.949 41.9702 241.795 41.331C243.654 40.6918 245.773 40.3722 248.152 40.3722C251.964 40.3722 254.84 41.1475 256.781 42.6982C258.734 44.237 259.593 46.3558 259.356 49.0547ZM272.544 52.446L269.952 68H261.269L267.306 31.6364H275.704L273.396 45.7344H273.698C274.574 44.0535 275.793 42.7396 277.356 41.7926C278.918 40.8456 280.729 40.3722 282.789 40.3722C284.683 40.3722 286.269 40.7983 287.547 41.6506C288.826 42.491 289.731 43.6806 290.264 45.2195C290.797 46.7583 290.891 48.5575 290.548 50.6172L287.636 68H278.954L281.581 52.3217C281.818 50.8066 281.623 49.6229 280.996 48.7706C280.368 47.9183 279.362 47.4922 277.977 47.4922C277.066 47.4922 276.225 47.6934 275.456 48.0959C274.698 48.4865 274.065 49.0488 273.556 49.7827C273.047 50.5166 272.71 51.4044 272.544 52.446ZM293.003 68L297.548 40.7273H306.231L301.685 68H293.003ZM302.502 37.5312C301.271 37.5312 300.271 37.1229 299.501 36.3061C298.732 35.4893 298.43 34.5128 298.596 33.3764C298.762 32.2282 299.342 31.2517 300.336 30.4467C301.33 29.6418 302.437 29.2393 303.656 29.2393C304.887 29.2393 305.876 29.6418 306.621 30.4467C307.379 31.2517 307.675 32.2282 307.509 33.3764C307.367 34.5128 306.799 35.4893 305.805 36.3061C304.822 37.1229 303.721 37.5312 302.502 37.5312Z" fill="black"/>
<path d="M65.4794 125L70.0249 97.7273H78.7074L74.1619 125H65.4794ZM74.9787 94.5312C73.7476 94.5312 72.7474 94.1229 71.978 93.3061C71.2086 92.4893 70.9067 91.5128 71.0724 90.3764C71.2382 89.2282 71.8182 88.2517 72.8125 87.4467C73.8068 86.6418 74.9136 86.2393 76.1328 86.2393C77.3639 86.2393 78.3523 86.6418 79.098 87.4467C79.8556 88.2517 80.1515 89.2282 79.9858 90.3764C79.8438 91.5128 79.2756 92.4893 78.2812 93.3061C77.2988 94.1229 76.1979 94.5312 74.9787 94.5312ZM106.588 106.055L98.758 106.268C98.7698 105.688 98.6396 105.179 98.3674 104.741C98.0951 104.291 97.7104 103.942 97.2132 103.693C96.7161 103.445 96.1242 103.32 95.4377 103.32C94.325 103.32 93.3248 103.569 92.437 104.066C91.561 104.563 91.0698 105.208 90.9632 106.001C90.8804 106.428 90.9988 106.8 91.3184 107.12C91.638 107.428 92.3482 107.7 93.449 107.937L98.5627 108.931C101.191 109.452 103.096 110.357 104.28 111.648C105.476 112.926 105.902 114.619 105.558 116.726C105.251 118.525 104.458 120.082 103.179 121.396C101.913 122.71 100.297 123.728 98.3319 124.45C96.3787 125.16 94.2185 125.515 91.851 125.515C87.8501 125.515 84.8316 124.71 82.7956 123.1C80.7715 121.478 79.8245 119.33 79.9547 116.655L88.4064 116.442C88.4419 117.448 88.7793 118.205 89.4185 118.714C90.0695 119.212 90.9514 119.472 92.0641 119.496C93.2833 119.519 94.3368 119.265 95.2246 118.732C96.1124 118.2 96.6096 117.543 96.7161 116.761C96.7871 116.252 96.6155 115.856 96.2012 115.572C95.7987 115.288 95.0471 115.033 93.9462 114.808L89.3297 113.903C86.6782 113.394 84.7606 112.435 83.5769 111.026C82.405 109.606 82.0025 107.795 82.3695 105.593C82.6773 103.841 83.3993 102.356 84.5357 101.136C85.6839 99.9053 87.1813 98.9702 89.0279 98.331C90.8863 97.6918 93.0051 97.3722 95.3844 97.3722C99.196 97.3722 102.072 98.1475 104.014 99.6982C105.967 101.237 106.825 103.356 106.588 106.055ZM119.776 109.446L117.184 125H108.501L114.538 88.6364H122.937L120.629 102.734H120.93C121.806 101.054 123.026 99.7396 124.588 98.7926C126.151 97.8456 127.962 97.3722 130.021 97.3722C131.915 97.3722 133.501 97.7983 134.78 98.6506C136.058 99.491 136.964 100.681 137.496 102.219C138.029 103.758 138.124 105.558 137.781 107.617L134.869 125H126.186L128.814 109.322C129.051 107.807 128.855 106.623 128.228 105.771C127.601 104.918 126.594 104.492 125.21 104.492C124.298 104.492 123.458 104.693 122.688 105.096C121.931 105.487 121.297 106.049 120.788 106.783C120.279 107.517 119.942 108.404 119.776 109.446ZM140.235 125L144.781 97.7273H153.215L152.38 102.699H152.664C153.457 100.9 154.493 99.562 155.771 98.6861C157.05 97.7983 158.435 97.3544 159.926 97.3544C160.329 97.3544 160.731 97.384 161.134 97.4432C161.548 97.4905 161.939 97.5616 162.306 97.6562L161.027 105.22C160.625 105.066 160.098 104.954 159.447 104.883C158.796 104.8 158.204 104.759 157.671 104.759C156.642 104.759 155.683 104.989 154.795 105.451C153.919 105.901 153.173 106.534 152.558 107.351C151.954 108.156 151.557 109.103 151.368 110.192L148.918 125H140.235ZM167.872 125.462C166.144 125.462 164.652 125.172 163.398 124.592C162.155 124 161.243 123.106 160.663 121.911C160.095 120.715 159.959 119.223 160.255 117.436C160.515 115.921 160.995 114.648 161.693 113.619C162.403 112.577 163.273 111.731 164.303 111.08C165.345 110.429 166.505 109.931 167.783 109.588C169.062 109.245 170.399 109.014 171.796 108.896C173.358 108.754 174.625 108.6 175.596 108.434C176.578 108.268 177.312 108.037 177.797 107.741C178.283 107.434 178.579 107.008 178.685 106.463V106.374C178.827 105.463 178.632 104.759 178.099 104.261C177.567 103.764 176.768 103.516 175.702 103.516C174.566 103.516 173.595 103.764 172.79 104.261C171.985 104.759 171.423 105.445 171.104 106.321L163.149 106.037C163.646 104.38 164.498 102.9 165.706 101.598C166.913 100.284 168.446 99.2543 170.305 98.5085C172.175 97.7509 174.335 97.3722 176.785 97.3722C178.514 97.3722 180.076 97.5793 181.473 97.9936C182.87 98.3961 184.047 98.9879 185.006 99.7692C185.977 100.539 186.669 101.486 187.084 102.61C187.498 103.735 187.587 105.019 187.35 106.463L184.243 125H176.075L176.714 121.2H176.501C175.862 122.124 175.11 122.905 174.246 123.544C173.394 124.183 172.435 124.663 171.37 124.982C170.305 125.302 169.139 125.462 167.872 125.462ZM171.53 119.78C172.441 119.78 173.305 119.59 174.122 119.212C174.939 118.833 175.625 118.312 176.182 117.649C176.75 116.974 177.111 116.193 177.265 115.305L177.673 112.713C177.425 112.843 177.111 112.962 176.732 113.068C176.353 113.175 175.951 113.275 175.525 113.37C175.099 113.453 174.661 113.536 174.211 113.619C173.773 113.69 173.353 113.755 172.95 113.814C172.098 113.944 171.358 114.145 170.731 114.418C170.103 114.69 169.6 115.045 169.221 115.483C168.854 115.909 168.63 116.418 168.547 117.01C168.405 117.898 168.612 118.584 169.168 119.07C169.724 119.543 170.512 119.78 171.53 119.78Z" fill="black"/>
</svg>
